<mxfile host="app.diagrams.net" modified="2021-03-28T22:35:12.011Z" agent="5.0 (Windows NT 10.0; Win64; x64) AppleWebKit/537.36 (KHTML, like Gecko) Chrome/89.0.4389.90 Safari/537.36" etag="9M4REyI3Mu1FivXNe0u0" version="14.5.3" type="github">
  <diagram id="jDXxqyub9zr2FIyn-q21" name="Page-1">
    <mxGraphModel dx="1922" dy="762" grid="1" gridSize="10" guides="1" tooltips="1" connect="1" arrows="1" fold="1" page="1" pageScale="1" pageWidth="500" pageHeight="500" math="0" shadow="0">
      <root>
        <mxCell id="0" />
        <mxCell id="1" parent="0" />
        <mxCell id="MLhOKFw0f3-GOFA3eTwi-4" value="" style="edgeStyle=orthogonalEdgeStyle;rounded=0;orthogonalLoop=1;jettySize=auto;html=1;endArrow=none;endFill=0;startArrow=block;startFill=1;" edge="1" parent="1" source="MLhOKFw0f3-GOFA3eTwi-2" target="MLhOKFw0f3-GOFA3eTwi-3">
          <mxGeometry relative="1" as="geometry" />
        </mxCell>
        <mxCell id="MLhOKFw0f3-GOFA3eTwi-6" value="" style="edgeStyle=orthogonalEdgeStyle;rounded=0;orthogonalLoop=1;jettySize=auto;html=1;endArrow=none;endFill=0;startArrow=classic;startFill=1;" edge="1" parent="1" source="MLhOKFw0f3-GOFA3eTwi-2" target="MLhOKFw0f3-GOFA3eTwi-5">
          <mxGeometry relative="1" as="geometry" />
        </mxCell>
        <mxCell id="MLhOKFw0f3-GOFA3eTwi-8" value="" style="edgeStyle=orthogonalEdgeStyle;rounded=0;orthogonalLoop=1;jettySize=auto;html=1;endArrow=none;endFill=0;startArrow=classic;startFill=1;" edge="1" parent="1" source="MLhOKFw0f3-GOFA3eTwi-2" target="MLhOKFw0f3-GOFA3eTwi-7">
          <mxGeometry relative="1" as="geometry" />
        </mxCell>
        <mxCell id="MLhOKFw0f3-GOFA3eTwi-10" value="" style="edgeStyle=orthogonalEdgeStyle;rounded=0;orthogonalLoop=1;jettySize=auto;html=1;endArrow=none;endFill=0;startArrow=classic;startFill=1;" edge="1" parent="1" source="MLhOKFw0f3-GOFA3eTwi-2" target="MLhOKFw0f3-GOFA3eTwi-9">
          <mxGeometry relative="1" as="geometry" />
        </mxCell>
        <mxCell id="MLhOKFw0f3-GOFA3eTwi-2" value="Metaheuristic" style="rounded=1;whiteSpace=wrap;html=1;" vertex="1" parent="1">
          <mxGeometry x="-190" y="150" width="120" height="60" as="geometry" />
        </mxCell>
        <mxCell id="MLhOKFw0f3-GOFA3eTwi-3" value="Initialization" style="whiteSpace=wrap;html=1;rounded=1;" vertex="1" parent="1">
          <mxGeometry x="-190" y="10" width="120" height="60" as="geometry" />
        </mxCell>
        <mxCell id="MLhOKFw0f3-GOFA3eTwi-5" value="Populations Management" style="whiteSpace=wrap;html=1;rounded=1;" vertex="1" parent="1">
          <mxGeometry x="-390" y="150" width="120" height="60" as="geometry" />
        </mxCell>
        <mxCell id="MLhOKFw0f3-GOFA3eTwi-7" value="Other Operators" style="whiteSpace=wrap;html=1;rounded=1;" vertex="1" parent="1">
          <mxGeometry x="10" y="150" width="120" height="60" as="geometry" />
        </mxCell>
        <mxCell id="MLhOKFw0f3-GOFA3eTwi-9" value="Local Search" style="whiteSpace=wrap;html=1;rounded=1;" vertex="1" parent="1">
          <mxGeometry x="-190" y="290" width="120" height="60" as="geometry" />
        </mxCell>
        <mxCell id="MLhOKFw0f3-GOFA3eTwi-11" value="" style="edgeStyle=orthogonalEdgeStyle;rounded=0;orthogonalLoop=1;jettySize=auto;html=1;endArrow=none;endFill=0;startArrow=block;startFill=1;" edge="1" parent="1" source="MLhOKFw0f3-GOFA3eTwi-15" target="MLhOKFw0f3-GOFA3eTwi-16">
          <mxGeometry relative="1" as="geometry" />
        </mxCell>
        <mxCell id="MLhOKFw0f3-GOFA3eTwi-12" value="" style="edgeStyle=orthogonalEdgeStyle;rounded=0;orthogonalLoop=1;jettySize=auto;html=1;endArrow=none;endFill=0;startArrow=classic;startFill=1;" edge="1" parent="1" source="MLhOKFw0f3-GOFA3eTwi-15" target="MLhOKFw0f3-GOFA3eTwi-17">
          <mxGeometry relative="1" as="geometry" />
        </mxCell>
        <mxCell id="MLhOKFw0f3-GOFA3eTwi-13" value="" style="edgeStyle=orthogonalEdgeStyle;rounded=0;orthogonalLoop=1;jettySize=auto;html=1;endArrow=none;endFill=0;startArrow=classic;startFill=1;" edge="1" parent="1" source="MLhOKFw0f3-GOFA3eTwi-15" target="MLhOKFw0f3-GOFA3eTwi-18">
          <mxGeometry relative="1" as="geometry" />
        </mxCell>
        <mxCell id="MLhOKFw0f3-GOFA3eTwi-14" value="" style="edgeStyle=orthogonalEdgeStyle;rounded=0;orthogonalLoop=1;jettySize=auto;html=1;endArrow=none;endFill=0;startArrow=classic;startFill=1;" edge="1" parent="1" source="MLhOKFw0f3-GOFA3eTwi-15" target="MLhOKFw0f3-GOFA3eTwi-19">
          <mxGeometry relative="1" as="geometry" />
        </mxCell>
        <mxCell id="MLhOKFw0f3-GOFA3eTwi-15" value="Metaheuristic" style="rounded=1;whiteSpace=wrap;html=1;" vertex="1" parent="1">
          <mxGeometry x="-180" y="160" width="120" height="60" as="geometry" />
        </mxCell>
        <mxCell id="MLhOKFw0f3-GOFA3eTwi-16" value="Initialization" style="whiteSpace=wrap;html=1;rounded=1;" vertex="1" parent="1">
          <mxGeometry x="-180" y="20" width="120" height="60" as="geometry" />
        </mxCell>
        <mxCell id="MLhOKFw0f3-GOFA3eTwi-17" value="Populations Management" style="whiteSpace=wrap;html=1;rounded=1;" vertex="1" parent="1">
          <mxGeometry x="-380" y="160" width="120" height="60" as="geometry" />
        </mxCell>
        <mxCell id="MLhOKFw0f3-GOFA3eTwi-18" value="Other Operators" style="whiteSpace=wrap;html=1;rounded=1;" vertex="1" parent="1">
          <mxGeometry x="20" y="160" width="120" height="60" as="geometry" />
        </mxCell>
        <mxCell id="MLhOKFw0f3-GOFA3eTwi-19" value="Local Search" style="whiteSpace=wrap;html=1;rounded=1;" vertex="1" parent="1">
          <mxGeometry x="-180" y="300" width="120" height="60" as="geometry" />
        </mxCell>
        <mxCell id="MLhOKFw0f3-GOFA3eTwi-20" value="" style="edgeStyle=orthogonalEdgeStyle;rounded=0;orthogonalLoop=1;jettySize=auto;html=1;endArrow=none;endFill=0;startArrow=block;startFill=1;" edge="1" parent="1" source="MLhOKFw0f3-GOFA3eTwi-24" target="MLhOKFw0f3-GOFA3eTwi-25">
          <mxGeometry relative="1" as="geometry" />
        </mxCell>
        <mxCell id="MLhOKFw0f3-GOFA3eTwi-21" value="" style="edgeStyle=orthogonalEdgeStyle;rounded=0;orthogonalLoop=1;jettySize=auto;html=1;endArrow=none;endFill=0;startArrow=classic;startFill=1;" edge="1" parent="1" source="MLhOKFw0f3-GOFA3eTwi-24" target="MLhOKFw0f3-GOFA3eTwi-26">
          <mxGeometry relative="1" as="geometry" />
        </mxCell>
        <mxCell id="MLhOKFw0f3-GOFA3eTwi-22" value="" style="edgeStyle=orthogonalEdgeStyle;rounded=0;orthogonalLoop=1;jettySize=auto;html=1;endArrow=none;endFill=0;startArrow=classic;startFill=1;" edge="1" parent="1" source="MLhOKFw0f3-GOFA3eTwi-24" target="MLhOKFw0f3-GOFA3eTwi-27">
          <mxGeometry relative="1" as="geometry" />
        </mxCell>
        <mxCell id="MLhOKFw0f3-GOFA3eTwi-23" value="" style="edgeStyle=orthogonalEdgeStyle;rounded=0;orthogonalLoop=1;jettySize=auto;html=1;endArrow=none;endFill=0;startArrow=classic;startFill=1;" edge="1" parent="1" source="MLhOKFw0f3-GOFA3eTwi-24" target="MLhOKFw0f3-GOFA3eTwi-28">
          <mxGeometry relative="1" as="geometry" />
        </mxCell>
        <mxCell id="MLhOKFw0f3-GOFA3eTwi-24" value="Metaheuristic" style="rounded=1;whiteSpace=wrap;html=1;" vertex="1" parent="1">
          <mxGeometry x="-170" y="170" width="120" height="60" as="geometry" />
        </mxCell>
        <mxCell id="MLhOKFw0f3-GOFA3eTwi-25" value="Initialization" style="whiteSpace=wrap;html=1;rounded=1;" vertex="1" parent="1">
          <mxGeometry x="-170" y="30" width="120" height="60" as="geometry" />
        </mxCell>
        <mxCell id="MLhOKFw0f3-GOFA3eTwi-26" value="Populations Management" style="whiteSpace=wrap;html=1;rounded=1;" vertex="1" parent="1">
          <mxGeometry x="-370" y="170" width="120" height="60" as="geometry" />
        </mxCell>
        <mxCell id="MLhOKFw0f3-GOFA3eTwi-27" value="Other Operators" style="whiteSpace=wrap;html=1;rounded=1;" vertex="1" parent="1">
          <mxGeometry x="30" y="170" width="120" height="60" as="geometry" />
        </mxCell>
        <mxCell id="MLhOKFw0f3-GOFA3eTwi-28" value="Local Search" style="whiteSpace=wrap;html=1;rounded=1;" vertex="1" parent="1">
          <mxGeometry x="-170" y="310" width="120" height="60" as="geometry" />
        </mxCell>
        <mxCell id="MLhOKFw0f3-GOFA3eTwi-29" value="" style="edgeStyle=orthogonalEdgeStyle;rounded=0;orthogonalLoop=1;jettySize=auto;html=1;endArrow=none;endFill=0;startArrow=block;startFill=1;" edge="1" parent="1" source="MLhOKFw0f3-GOFA3eTwi-33" target="MLhOKFw0f3-GOFA3eTwi-34">
          <mxGeometry relative="1" as="geometry" />
        </mxCell>
        <mxCell id="MLhOKFw0f3-GOFA3eTwi-30" value="" style="edgeStyle=orthogonalEdgeStyle;rounded=0;orthogonalLoop=1;jettySize=auto;html=1;startArrow=classic;startFill=1;endArrow=none;endFill=0;" edge="1" parent="1" source="MLhOKFw0f3-GOFA3eTwi-33" target="MLhOKFw0f3-GOFA3eTwi-35">
          <mxGeometry relative="1" as="geometry" />
        </mxCell>
        <mxCell id="MLhOKFw0f3-GOFA3eTwi-31" value="" style="edgeStyle=orthogonalEdgeStyle;rounded=0;orthogonalLoop=1;jettySize=auto;html=1;endArrow=none;endFill=0;startArrow=classic;startFill=1;" edge="1" parent="1" source="MLhOKFw0f3-GOFA3eTwi-33" target="MLhOKFw0f3-GOFA3eTwi-36">
          <mxGeometry relative="1" as="geometry" />
        </mxCell>
        <mxCell id="MLhOKFw0f3-GOFA3eTwi-32" value="" style="edgeStyle=orthogonalEdgeStyle;rounded=0;orthogonalLoop=1;jettySize=auto;html=1;endArrow=none;endFill=0;startArrow=classic;startFill=1;" edge="1" parent="1" source="MLhOKFw0f3-GOFA3eTwi-33" target="MLhOKFw0f3-GOFA3eTwi-37">
          <mxGeometry relative="1" as="geometry" />
        </mxCell>
        <mxCell id="MLhOKFw0f3-GOFA3eTwi-33" value="Metaheuristic" style="rounded=1;whiteSpace=wrap;html=1;" vertex="1" parent="1">
          <mxGeometry x="-160" y="180" width="120" height="60" as="geometry" />
        </mxCell>
        <mxCell id="MLhOKFw0f3-GOFA3eTwi-34" value="Initialization" style="whiteSpace=wrap;html=1;rounded=1;" vertex="1" parent="1">
          <mxGeometry x="-160" y="40" width="120" height="60" as="geometry" />
        </mxCell>
        <mxCell id="MLhOKFw0f3-GOFA3eTwi-35" value="Populations Management" style="whiteSpace=wrap;html=1;rounded=1;" vertex="1" parent="1">
          <mxGeometry x="-360" y="180" width="120" height="60" as="geometry" />
        </mxCell>
        <mxCell id="MLhOKFw0f3-GOFA3eTwi-36" value="Other Operators" style="whiteSpace=wrap;html=1;rounded=1;" vertex="1" parent="1">
          <mxGeometry x="40" y="180" width="120" height="60" as="geometry" />
        </mxCell>
        <mxCell id="MLhOKFw0f3-GOFA3eTwi-37" value="Scheme &lt;br&gt;Binarization" style="whiteSpace=wrap;html=1;rounded=1;" vertex="1" parent="1">
          <mxGeometry x="-160" y="320" width="120" height="60" as="geometry" />
        </mxCell>
        <mxCell id="MLhOKFw0f3-GOFA3eTwi-39" value="" style="endArrow=classic;startArrow=classic;html=1;dashed=1;" edge="1" parent="1">
          <mxGeometry width="50" height="50" relative="1" as="geometry">
            <mxPoint x="-380" y="250" as="sourcePoint" />
            <mxPoint x="-420" y="200" as="targetPoint" />
          </mxGeometry>
        </mxCell>
        <mxCell id="MLhOKFw0f3-GOFA3eTwi-40" value="&lt;font style=&quot;font-size: 14px&quot;&gt;&lt;b&gt;Different parameter settings&lt;/b&gt;&lt;/font&gt;" style="text;html=1;strokeColor=none;fillColor=none;align=center;verticalAlign=middle;whiteSpace=wrap;rounded=0;" vertex="1" parent="1">
          <mxGeometry x="-480" y="210" width="70" height="60" as="geometry" />
        </mxCell>
        <mxCell id="MLhOKFw0f3-GOFA3eTwi-46" value="&lt;blockquote style=&quot;margin: 0 0 0 40px ; border: none ; padding: 0px&quot;&gt;La Figura Ejemplifica las múltiples configuraciones que puede tener una Metaheurística, entendiendo a estas como un conjunto de operadores, los cuales tiene parámetros a configurar según el problema a resolver.&lt;/blockquote&gt;" style="text;html=1;strokeColor=none;fillColor=none;align=left;verticalAlign=middle;whiteSpace=wrap;rounded=0;" vertex="1" parent="1">
          <mxGeometry x="-390" y="420" width="680" height="150" as="geometry" />
        </mxCell>
      </root>
    </mxGraphModel>
  </diagram>
</mxfile>
